<svg width="40" height="38" viewBox="0 0 40 38" fill="none" xmlns="http://www.w3.org/2000/svg">
<g filter="url(#filter0_di_502_6)">
<path d="M19.92 29.48C17.7067 29.48 15.6533 29.12 13.76 28.4C11.8933 27.68 10.2667 26.6667 8.88 25.36C7.52 24.0533 6.45333 22.52 5.68 20.76C4.93333 19 4.56 17.08 4.56 15C4.56 12.92 4.93333 11 5.68 9.24C6.45333 7.48 7.53333 5.94667 8.92 4.64C10.3067 3.33333 11.9333 2.32 13.8 1.6C15.6667 0.879999 17.6933 0.52 19.88 0.52C22.0933 0.52 24.12 0.879999 25.96 1.6C27.8267 2.32 29.44 3.33333 30.8 4.64C32.1867 5.94667 33.2667 7.48 34.04 9.24C34.8133 10.9733 35.2 12.8933 35.2 15C35.2 17.08 34.8133 19.0133 34.04 20.8C33.2667 22.56 32.1867 24.0933 30.8 25.4C29.44 26.68 27.8267 27.68 25.96 28.4C24.12 29.12 22.1067 29.48 19.92 29.48ZM19.88 23.96C21.1333 23.96 22.28 23.7467 23.32 23.32C24.3867 22.8933 25.32 22.28 26.12 21.48C26.92 20.68 27.5333 19.7333 27.96 18.64C28.4133 17.5467 28.64 16.3333 28.64 15C28.64 13.6667 28.4133 12.4533 27.96 11.36C27.5333 10.2667 26.92 9.32 26.12 8.52C25.3467 7.72 24.4267 7.10666 23.36 6.68C22.2933 6.25333 21.1333 6.04 19.88 6.04C18.6267 6.04 17.4667 6.25333 16.4 6.68C15.36 7.10666 14.44 7.72 13.64 8.52C12.84 9.32 12.2133 10.2667 11.76 11.36C11.3333 12.4533 11.12 13.6667 11.12 15C11.12 16.3067 11.3333 17.52 11.76 18.64C12.2133 19.7333 12.8267 20.68 13.6 21.48C14.4 22.28 15.3333 22.8933 16.4 23.32C17.4667 23.7467 18.6267 23.96 19.88 23.96Z" fill="url(#paint0_linear_502_6)"/>
</g>
<defs>
<filter id="filter0_di_502_6" x="0.559998" y="0.52002" width="38.64" height="36.96" filterUnits="userSpaceOnUse" color-interpolation-filters="sRGB">
<feFlood flood-opacity="0" result="BackgroundImageFix"/>
<feColorMatrix in="SourceAlpha" type="matrix" values="0 0 0 0 0 0 0 0 0 0 0 0 0 0 0 0 0 0 127 0" result="hardAlpha"/>
<feOffset dy="4"/>
<feGaussianBlur stdDeviation="2"/>
<feComposite in2="hardAlpha" operator="out"/>
<feColorMatrix type="matrix" values="0 0 0 0 0 0 0 0 0 0 0 0 0 0 0 0 0 0 0.25 0"/>
<feBlend mode="normal" in2="BackgroundImageFix" result="effect1_dropShadow_502_6"/>
<feBlend mode="normal" in="SourceGraphic" in2="effect1_dropShadow_502_6" result="shape"/>
<feColorMatrix in="SourceAlpha" type="matrix" values="0 0 0 0 0 0 0 0 0 0 0 0 0 0 0 0 0 0 127 0" result="hardAlpha"/>
<feOffset dy="4"/>
<feGaussianBlur stdDeviation="2"/>
<feComposite in2="hardAlpha" operator="arithmetic" k2="-1" k3="1"/>
<feColorMatrix type="matrix" values="0 0 0 0 0 0 0 0 0 0 0 0 0 0 0 0 0 0 0.25 0"/>
<feBlend mode="normal" in2="shape" result="effect2_innerShadow_502_6"/>
</filter>
<linearGradient id="paint0_linear_502_6" x1="2.46154" y1="-0.500049" x2="35.0109" y2="-0.952119" gradientUnits="userSpaceOnUse">
<stop offset="0.205" stop-color="#CBE7ED"/>
<stop offset="0.531199" stop-color="#8AC3CF"/>
<stop offset="0.88" stop-color="#4CA0B3"/>
<stop offset="0.99" stop-color="#0A7189"/>
</linearGradient>
</defs>
</svg>
