<svg width="234" height="45" viewBox="0 0 234 45" fill="none" xmlns="http://www.w3.org/2000/svg">
<g filter="url(#filter0_di_821_2932)">
<path d="M19.92 29.48C17.7067 29.48 15.6533 29.12 13.76 28.4C11.8933 27.68 10.2667 26.6667 8.88 25.36C7.52 24.0533 6.45333 22.52 5.68 20.76C4.93333 19 4.56 17.08 4.56 15C4.56 12.92 4.93333 11 5.68 9.24C6.45333 7.48 7.53333 5.94667 8.92 4.64C10.3067 3.33333 11.9333 2.32 13.8 1.6C15.6667 0.879999 17.6933 0.52 19.88 0.52C22.0933 0.52 24.12 0.879999 25.96 1.6C27.8267 2.32 29.44 3.33333 30.8 4.64C32.1867 5.94667 33.2667 7.48 34.04 9.24C34.8133 10.9733 35.2 12.8933 35.2 15C35.2 17.08 34.8133 19.0133 34.04 20.8C33.2667 22.56 32.1867 24.0933 30.8 25.4C29.44 26.68 27.8267 27.68 25.96 28.4C24.12 29.12 22.1067 29.48 19.92 29.48ZM19.88 23.96C21.1333 23.96 22.28 23.7467 23.32 23.32C24.3867 22.8933 25.32 22.28 26.12 21.48C26.92 20.68 27.5333 19.7333 27.96 18.64C28.4133 17.5467 28.64 16.3333 28.64 15C28.64 13.6667 28.4133 12.4533 27.96 11.36C27.5333 10.2667 26.92 9.32 26.12 8.52C25.3467 7.72 24.4267 7.10666 23.36 6.68C22.2933 6.25333 21.1333 6.04 19.88 6.04C18.6267 6.04 17.4667 6.25333 16.4 6.68C15.36 7.10666 14.44 7.72 13.64 8.52C12.84 9.32 12.2133 10.2667 11.76 11.36C11.3333 12.4533 11.12 13.6667 11.12 15C11.12 16.3067 11.3333 17.52 11.76 18.64C12.2133 19.7333 12.8267 20.68 13.6 21.48C14.4 22.28 15.3333 22.8933 16.4 23.32C17.4667 23.7467 18.6267 23.96 19.88 23.96ZM52.35 29.32C50.5367 29.32 48.95 28.92 47.59 28.12C46.23 27.32 45.1633 26.1067 44.39 24.48C43.6433 22.8267 43.27 20.7467 43.27 18.24C43.27 15.7067 43.63 13.6267 44.35 12C45.07 10.3733 46.11 9.16 47.47 8.36C48.83 7.56 50.4567 7.16 52.35 7.16C54.3767 7.16 56.19 7.62667 57.79 8.56C59.4167 9.46667 60.6967 10.7467 61.63 12.4C62.59 14.0533 63.07 16 63.07 18.24C63.07 20.5067 62.59 22.4667 61.63 24.12C60.6967 25.7733 59.4167 27.0533 57.79 27.96C56.19 28.8667 54.3767 29.32 52.35 29.32ZM39.63 36.76V7.48H45.59V11.88L45.47 18.28L45.87 24.64V36.76H39.63ZM51.27 24.2C52.31 24.2 53.23 23.96 54.03 23.48C54.8567 23 55.51 22.32 55.99 21.44C56.4967 20.5333 56.75 19.4667 56.75 18.24C56.75 16.9867 56.4967 15.92 55.99 15.04C55.51 14.16 54.8567 13.48 54.03 13C53.23 12.52 52.31 12.28 51.27 12.28C50.23 12.28 49.2967 12.52 48.47 13C47.6433 13.48 46.99 14.16 46.51 15.04C46.03 15.92 45.79 16.9867 45.79 18.24C45.79 19.4667 46.03 20.5333 46.51 21.44C46.99 22.32 47.6433 23 48.47 23.48C49.2967 23.96 50.23 24.2 51.27 24.2ZM77.9272 29.32C75.4739 29.32 73.3139 28.84 71.4472 27.88C69.6072 26.92 68.1805 25.6133 67.1672 23.96C66.1539 22.28 65.6472 20.3733 65.6472 18.24C65.6472 16.08 66.1405 14.1733 67.1272 12.52C68.1405 10.84 69.5139 9.53333 71.2472 8.6C72.9805 7.64 74.9405 7.16 77.1272 7.16C79.2339 7.16 81.1272 7.61333 82.8072 8.52C84.5139 9.4 85.8605 10.68 86.8472 12.36C87.8339 14.0133 88.3272 16 88.3272 18.32C88.3272 18.56 88.3139 18.84 88.2872 19.16C88.2605 19.4533 88.2339 19.7333 88.2072 20H70.7272V16.36H84.9272L82.5272 17.44C82.5272 16.32 82.3005 15.3467 81.8472 14.52C81.3939 13.6933 80.7672 13.0533 79.9672 12.6C79.1672 12.12 78.2339 11.88 77.1672 11.88C76.1005 11.88 75.1539 12.12 74.3272 12.6C73.5272 13.0533 72.9005 13.7067 72.4472 14.56C71.9939 15.3867 71.7672 16.3733 71.7672 17.52V18.48C71.7672 19.6533 72.0205 20.6933 72.5272 21.6C73.0605 22.48 73.7939 23.16 74.7272 23.64C75.6872 24.0933 76.8072 24.32 78.0872 24.32C79.2339 24.32 80.2339 24.1467 81.0872 23.8C81.9672 23.4533 82.7672 22.9333 83.4872 22.24L86.8072 25.84C85.8205 26.96 84.5805 27.8267 83.0872 28.44C81.5939 29.0267 79.8739 29.32 77.9272 29.32ZM105.562 7.16C107.268 7.16 108.788 7.50667 110.122 8.2C111.482 8.86667 112.548 9.90667 113.322 11.32C114.095 12.7067 114.482 14.4933 114.482 16.68V29H108.242V17.64C108.242 15.9067 107.855 14.6267 107.082 13.8C106.335 12.9733 105.268 12.56 103.882 12.56C102.895 12.56 102.002 12.7733 101.202 13.2C100.428 13.6 99.8149 14.2267 99.3616 15.08C98.9349 15.9333 98.7216 17.0267 98.7216 18.36V29H92.4816V7.48H98.4416V13.44L97.3216 11.64C98.0949 10.2 99.2016 9.09333 100.642 8.32C102.082 7.54667 103.722 7.16 105.562 7.16ZM129.778 29.48C127.538 29.48 125.391 29.1867 123.338 28.6C121.284 27.9867 119.631 27.2 118.378 26.24L120.578 21.36C121.778 22.2133 123.191 22.92 124.818 23.48C126.471 24.0133 128.138 24.28 129.818 24.28C131.098 24.28 132.124 24.16 132.898 23.92C133.698 23.6533 134.284 23.2933 134.658 22.84C135.031 22.3867 135.218 21.8667 135.218 21.28C135.218 20.5333 134.924 19.9467 134.338 19.52C133.751 19.0667 132.978 18.7067 132.018 18.44C131.058 18.1467 129.991 17.88 128.818 17.64C127.671 17.3733 126.511 17.0533 125.338 16.68C124.191 16.3067 123.138 15.8267 122.178 15.24C121.218 14.6533 120.431 13.88 119.818 12.92C119.231 11.96 118.938 10.7333 118.938 9.24C118.938 7.64 119.364 6.18667 120.218 4.88C121.098 3.54666 122.404 2.49333 124.138 1.72C125.898 0.919999 128.098 0.52 130.738 0.52C132.498 0.52 134.231 0.733332 135.938 1.16C137.644 1.56 139.151 2.17333 140.458 3L138.458 7.92C137.151 7.17333 135.844 6.62667 134.538 6.28C133.231 5.90667 131.951 5.72 130.698 5.72C129.444 5.72 128.418 5.86667 127.618 6.16C126.818 6.45333 126.244 6.84 125.898 7.32C125.551 7.77333 125.378 8.30667 125.378 8.92C125.378 9.64 125.671 10.2267 126.258 10.68C126.844 11.1067 127.618 11.4533 128.578 11.72C129.538 11.9867 130.591 12.2533 131.738 12.52C132.911 12.7867 134.071 13.0933 135.218 13.44C136.391 13.7867 137.458 14.2533 138.418 14.84C139.378 15.4267 140.151 16.2 140.738 17.16C141.351 18.12 141.658 19.3333 141.658 20.8C141.658 22.3733 141.218 23.8133 140.338 25.12C139.458 26.4267 138.138 27.48 136.378 28.28C134.644 29.08 132.444 29.48 129.778 29.48ZM152.46 29V17.56L153.94 21.48L141.62 0.999998H148.5L157.94 16.72H153.98L163.46 0.999998H169.82L157.5 21.48L158.94 17.56V29H152.46ZM172.297 29V0.999998H177.657L194.177 21.16H191.577V0.999998H197.977V29H192.657L176.097 8.84H178.697V29H172.297ZM218.001 29.48C215.841 29.48 213.828 29.1333 211.961 28.44C210.121 27.72 208.521 26.7067 207.161 25.4C205.801 24.0933 204.735 22.56 203.961 20.8C203.215 19.04 202.841 17.1067 202.841 15C202.841 12.8933 203.215 10.96 203.961 9.2C204.735 7.44 205.801 5.90667 207.161 4.6C208.548 3.29333 210.161 2.29333 212.001 1.6C213.841 0.879999 215.855 0.52 218.041 0.52C220.468 0.52 222.655 0.946666 224.601 1.8C226.575 2.62667 228.228 3.85333 229.561 5.48L225.401 9.32C224.441 8.22667 223.375 7.41333 222.201 6.88C221.028 6.32 219.748 6.04 218.361 6.04C217.055 6.04 215.855 6.25333 214.761 6.68C213.668 7.10666 212.721 7.72 211.921 8.52C211.121 9.32 210.495 10.2667 210.041 11.36C209.615 12.4533 209.401 13.6667 209.401 15C209.401 16.3333 209.615 17.5467 210.041 18.64C210.495 19.7333 211.121 20.68 211.921 21.48C212.721 22.28 213.668 22.8933 214.761 23.32C215.855 23.7467 217.055 23.96 218.361 23.96C219.748 23.96 221.028 23.6933 222.201 23.16C223.375 22.6 224.441 21.76 225.401 20.64L229.561 24.48C228.228 26.1067 226.575 27.3467 224.601 28.2C222.655 29.0533 220.455 29.48 218.001 29.48Z" fill="url(#paint0_linear_821_2932)"/>
</g>
<defs>
<filter id="filter0_di_821_2932" x="0.559998" y="0.52002" width="233.001" height="44.24" filterUnits="userSpaceOnUse" color-interpolation-filters="sRGB">
<feFlood flood-opacity="0" result="BackgroundImageFix"/>
<feColorMatrix in="SourceAlpha" type="matrix" values="0 0 0 0 0 0 0 0 0 0 0 0 0 0 0 0 0 0 127 0" result="hardAlpha"/>
<feOffset dy="4"/>
<feGaussianBlur stdDeviation="2"/>
<feComposite in2="hardAlpha" operator="out"/>
<feColorMatrix type="matrix" values="0 0 0 0 0 0 0 0 0 0 0 0 0 0 0 0 0 0 0.25 0"/>
<feBlend mode="normal" in2="BackgroundImageFix" result="effect1_dropShadow_821_2932"/>
<feBlend mode="normal" in="SourceGraphic" in2="effect1_dropShadow_821_2932" result="shape"/>
<feColorMatrix in="SourceAlpha" type="matrix" values="0 0 0 0 0 0 0 0 0 0 0 0 0 0 0 0 0 0 127 0" result="hardAlpha"/>
<feOffset dy="4"/>
<feGaussianBlur stdDeviation="2"/>
<feComposite in2="hardAlpha" operator="arithmetic" k2="-1" k3="1"/>
<feColorMatrix type="matrix" values="0 0 0 0 0 0 0 0 0 0 0 0 0 0 0 0 0 0 0.25 0"/>
<feBlend mode="normal" in2="shape" result="effect2_innerShadow_821_2932"/>
</filter>
<linearGradient id="paint0_linear_821_2932" x1="-0.610864" y1="-0.500049" x2="215.826" y2="-20.6582" gradientUnits="userSpaceOnUse">
<stop offset="0.205" stop-color="#CBE7ED"/>
<stop offset="0.531199" stop-color="#8AC3CF"/>
<stop offset="0.88" stop-color="#4CA0B3"/>
<stop offset="0.99" stop-color="#0A7189"/>
</linearGradient>
</defs>
</svg>
