<svg width="224" height="55" viewBox="0 0 224 55" fill="none" xmlns="http://www.w3.org/2000/svg">
<g filter="url(#filter0_di_821_2931)">
<path d="M19.92 39.48C17.7067 39.48 15.6533 39.12 13.76 38.4C11.8933 37.68 10.2667 36.6667 8.88 35.36C7.52 34.0533 6.45333 32.52 5.68 30.76C4.93333 29 4.56 27.08 4.56 25C4.56 22.92 4.93333 21 5.68 19.24C6.45333 17.48 7.53333 15.9467 8.92 14.64C10.3067 13.3333 11.9333 12.32 13.8 11.6C15.6667 10.88 17.6933 10.52 19.88 10.52C22.0933 10.52 24.12 10.88 25.96 11.6C27.8267 12.32 29.44 13.3333 30.8 14.64C32.1867 15.9467 33.2667 17.48 34.04 19.24C34.8133 20.9733 35.2 22.8933 35.2 25C35.2 27.08 34.8133 29.0133 34.04 30.8C33.2667 32.56 32.1867 34.0933 30.8 35.4C29.44 36.68 27.8267 37.68 25.96 38.4C24.12 39.12 22.1067 39.48 19.92 39.48ZM19.88 33.96C21.1333 33.96 22.28 33.7467 23.32 33.32C24.3867 32.8933 25.32 32.28 26.12 31.48C26.92 30.68 27.5333 29.7333 27.96 28.64C28.4133 27.5467 28.64 26.3333 28.64 25C28.64 23.6667 28.4133 22.4533 27.96 21.36C27.5333 20.2667 26.92 19.32 26.12 18.52C25.3467 17.72 24.4267 17.1067 23.36 16.68C22.2933 16.2533 21.1333 16.04 19.88 16.04C18.6267 16.04 17.4667 16.2533 16.4 16.68C15.36 17.1067 14.44 17.72 13.64 18.52C12.84 19.32 12.2133 20.2667 11.76 21.36C11.3333 22.4533 11.12 23.6667 11.12 25C11.12 26.3067 11.3333 27.52 11.76 28.64C12.2133 29.7333 12.8267 30.68 13.6 31.48C14.4 32.28 15.3333 32.8933 16.4 33.32C17.4667 33.7467 18.6267 33.96 19.88 33.96ZM52.35 39.32C50.5367 39.32 48.95 38.92 47.59 38.12C46.23 37.32 45.1633 36.1067 44.39 34.48C43.6433 32.8267 43.27 30.7467 43.27 28.24C43.27 25.7067 43.63 23.6267 44.35 22C45.07 20.3733 46.11 19.16 47.47 18.36C48.83 17.56 50.4567 17.16 52.35 17.16C54.3767 17.16 56.19 17.6267 57.79 18.56C59.4167 19.4667 60.6967 20.7467 61.63 22.4C62.59 24.0533 63.07 26 63.07 28.24C63.07 30.5067 62.59 32.4667 61.63 34.12C60.6967 35.7733 59.4167 37.0533 57.79 37.96C56.19 38.8667 54.3767 39.32 52.35 39.32ZM39.63 46.76V17.48H45.59V21.88L45.47 28.28L45.87 34.64V46.76H39.63ZM51.27 34.2C52.31 34.2 53.23 33.96 54.03 33.48C54.8567 33 55.51 32.32 55.99 31.44C56.4967 30.5333 56.75 29.4667 56.75 28.24C56.75 26.9867 56.4967 25.92 55.99 25.04C55.51 24.16 54.8567 23.48 54.03 23C53.23 22.52 52.31 22.28 51.27 22.28C50.23 22.28 49.2967 22.52 48.47 23C47.6433 23.48 46.99 24.16 46.51 25.04C46.03 25.92 45.79 26.9867 45.79 28.24C45.79 29.4667 46.03 30.5333 46.51 31.44C46.99 32.32 47.6433 33 48.47 33.48C49.2967 33.96 50.23 34.2 51.27 34.2ZM77.9272 39.32C75.4739 39.32 73.3139 38.84 71.4472 37.88C69.6072 36.92 68.1805 35.6133 67.1672 33.96C66.1539 32.28 65.6472 30.3733 65.6472 28.24C65.6472 26.08 66.1405 24.1733 67.1272 22.52C68.1405 20.84 69.5139 19.5333 71.2472 18.6C72.9805 17.64 74.9405 17.16 77.1272 17.16C79.2339 17.16 81.1272 17.6133 82.8072 18.52C84.5139 19.4 85.8605 20.68 86.8472 22.36C87.8339 24.0133 88.3272 26 88.3272 28.32C88.3272 28.56 88.3139 28.84 88.2872 29.16C88.2605 29.4533 88.2339 29.7333 88.2072 30H70.7272V26.36H84.9272L82.5272 27.44C82.5272 26.32 82.3005 25.3467 81.8472 24.52C81.3939 23.6933 80.7672 23.0533 79.9672 22.6C79.1672 22.12 78.2339 21.88 77.1672 21.88C76.1005 21.88 75.1539 22.12 74.3272 22.6C73.5272 23.0533 72.9005 23.7067 72.4472 24.56C71.9939 25.3867 71.7672 26.3733 71.7672 27.52V28.48C71.7672 29.6533 72.0205 30.6933 72.5272 31.6C73.0605 32.48 73.7939 33.16 74.7272 33.64C75.6872 34.0933 76.8072 34.32 78.0872 34.32C79.2339 34.32 80.2339 34.1467 81.0872 33.8C81.9672 33.4533 82.7672 32.9333 83.4872 32.24L86.8072 35.84C85.8205 36.96 84.5805 37.8267 83.0872 38.44C81.5939 39.0267 79.8739 39.32 77.9272 39.32ZM105.562 17.16C107.268 17.16 108.788 17.5067 110.122 18.2C111.482 18.8667 112.548 19.9067 113.322 21.32C114.095 22.7067 114.482 24.4933 114.482 26.68V39H108.242V27.64C108.242 25.9067 107.855 24.6267 107.082 23.8C106.335 22.9733 105.268 22.56 103.882 22.56C102.895 22.56 102.002 22.7733 101.202 23.2C100.428 23.6 99.8149 24.2267 99.3616 25.08C98.9349 25.9333 98.7216 27.0267 98.7216 28.36V39H92.4816V17.48H98.4416V23.44L97.3216 21.64C98.0949 20.2 99.2016 19.0933 100.642 18.32C102.082 17.5467 103.722 17.16 105.562 17.16Z" fill="url(#paint0_linear_821_2931)"/>
</g>
<g filter="url(#filter1_di_821_2931)">
<path d="M119.52 39.48C117.28 39.48 115.133 39.1867 113.08 38.6C111.027 37.9867 109.373 37.2 108.12 36.24L110.32 31.36C111.52 32.2133 112.933 32.92 114.56 33.48C116.213 34.0133 117.88 34.28 119.56 34.28C120.84 34.28 121.867 34.16 122.64 33.92C123.44 33.6533 124.027 33.2933 124.4 32.84C124.773 32.3867 124.96 31.8667 124.96 31.28C124.96 30.5333 124.667 29.9467 124.08 29.52C123.493 29.0667 122.72 28.7067 121.76 28.44C120.8 28.1467 119.733 27.88 118.56 27.64C117.413 27.3733 116.253 27.0533 115.08 26.68C113.933 26.3067 112.88 25.8267 111.92 25.24C110.96 24.6533 110.173 23.88 109.56 22.92C108.973 21.96 108.68 20.7333 108.68 19.24C108.68 17.64 109.107 16.1867 109.96 14.88C110.84 13.5467 112.147 12.4933 113.88 11.72C115.64 10.92 117.84 10.52 120.48 10.52C122.24 10.52 123.973 10.7333 125.68 11.16C127.387 11.56 128.893 12.1733 130.2 13L128.2 17.92C126.893 17.1733 125.587 16.6267 124.28 16.28C122.973 15.9067 121.693 15.72 120.44 15.72C119.187 15.72 118.16 15.8667 117.36 16.16C116.56 16.4533 115.987 16.84 115.64 17.32C115.293 17.7733 115.12 18.3067 115.12 18.92C115.12 19.64 115.413 20.2267 116 20.68C116.587 21.1067 117.36 21.4533 118.32 21.72C119.28 21.9867 120.333 22.2533 121.48 22.52C122.653 22.7867 123.813 23.0933 124.96 23.44C126.133 23.7867 127.2 24.2533 128.16 24.84C129.12 25.4267 129.893 26.2 130.48 27.16C131.093 28.12 131.4 29.3333 131.4 30.8C131.4 32.3733 130.96 33.8133 130.08 35.12C129.2 36.4267 127.88 37.48 126.12 38.28C124.387 39.08 122.187 39.48 119.52 39.48ZM142.202 39V27.56L143.682 31.48L131.362 11H138.242L147.682 26.72H143.722L153.202 11H159.562L147.242 31.48L148.682 27.56V39H142.202ZM162.039 39V11H167.399L183.919 31.16H181.319V11H187.719V39H182.399L165.839 18.84H168.439V39H162.039ZM207.743 39.48C205.583 39.48 203.57 39.1333 201.703 38.44C199.863 37.72 198.263 36.7067 196.903 35.4C195.543 34.0933 194.477 32.56 193.703 30.8C192.957 29.04 192.583 27.1067 192.583 25C192.583 22.8933 192.957 20.96 193.703 19.2C194.477 17.44 195.543 15.9067 196.903 14.6C198.29 13.2933 199.903 12.2933 201.743 11.6C203.583 10.88 205.597 10.52 207.783 10.52C210.21 10.52 212.397 10.9467 214.343 11.8C216.317 12.6267 217.97 13.8533 219.303 15.48L215.143 19.32C214.183 18.2267 213.117 17.4133 211.943 16.88C210.77 16.32 209.49 16.04 208.103 16.04C206.797 16.04 205.597 16.2533 204.503 16.68C203.41 17.1067 202.463 17.72 201.663 18.52C200.863 19.32 200.237 20.2667 199.783 21.36C199.357 22.4533 199.143 23.6667 199.143 25C199.143 26.3333 199.357 27.5467 199.783 28.64C200.237 29.7333 200.863 30.68 201.663 31.48C202.463 32.28 203.41 32.8933 204.503 33.32C205.597 33.7467 206.797 33.96 208.103 33.96C209.49 33.96 210.77 33.6933 211.943 33.16C213.117 32.6 214.183 31.76 215.143 30.64L219.303 34.48C217.97 36.1067 216.317 37.3467 214.343 38.2C212.397 39.0533 210.197 39.48 207.743 39.48Z" fill="url(#paint1_linear_821_2931)"/>
</g>
<defs>
<filter id="filter0_di_821_2931" x="0.559998" y="10.52" width="117.922" height="44.24" filterUnits="userSpaceOnUse" color-interpolation-filters="sRGB">
<feFlood flood-opacity="0" result="BackgroundImageFix"/>
<feColorMatrix in="SourceAlpha" type="matrix" values="0 0 0 0 0 0 0 0 0 0 0 0 0 0 0 0 0 0 127 0" result="hardAlpha"/>
<feOffset dy="4"/>
<feGaussianBlur stdDeviation="2"/>
<feComposite in2="hardAlpha" operator="out"/>
<feColorMatrix type="matrix" values="0 0 0 0 0 0 0 0 0 0 0 0 0 0 0 0 0 0 0.25 0"/>
<feBlend mode="normal" in2="BackgroundImageFix" result="effect1_dropShadow_821_2931"/>
<feBlend mode="normal" in="SourceGraphic" in2="effect1_dropShadow_821_2931" result="shape"/>
<feColorMatrix in="SourceAlpha" type="matrix" values="0 0 0 0 0 0 0 0 0 0 0 0 0 0 0 0 0 0 127 0" result="hardAlpha"/>
<feOffset dy="4"/>
<feGaussianBlur stdDeviation="2"/>
<feComposite in2="hardAlpha" operator="arithmetic" k2="-1" k3="1"/>
<feColorMatrix type="matrix" values="0 0 0 0 0 0 0 0 0 0 0 0 0 0 0 0 0 0 0.25 0"/>
<feBlend mode="normal" in2="shape" result="effect2_innerShadow_821_2931"/>
</filter>
<filter id="filter1_di_821_2931" x="104.12" y="10.52" width="119.183" height="36.96" filterUnits="userSpaceOnUse" color-interpolation-filters="sRGB">
<feFlood flood-opacity="0" result="BackgroundImageFix"/>
<feColorMatrix in="SourceAlpha" type="matrix" values="0 0 0 0 0 0 0 0 0 0 0 0 0 0 0 0 0 0 127 0" result="hardAlpha"/>
<feOffset dy="4"/>
<feGaussianBlur stdDeviation="2"/>
<feComposite in2="hardAlpha" operator="out"/>
<feColorMatrix type="matrix" values="0 0 0 0 0 0 0 0 0 0 0 0 0 0 0 0 0 0 0.25 0"/>
<feBlend mode="normal" in2="BackgroundImageFix" result="effect1_dropShadow_821_2931"/>
<feBlend mode="normal" in="SourceGraphic" in2="effect1_dropShadow_821_2931" result="shape"/>
<feColorMatrix in="SourceAlpha" type="matrix" values="0 0 0 0 0 0 0 0 0 0 0 0 0 0 0 0 0 0 127 0" result="hardAlpha"/>
<feOffset dy="4"/>
<feGaussianBlur stdDeviation="2"/>
<feComposite in2="hardAlpha" operator="arithmetic" k2="-1" k3="1"/>
<feColorMatrix type="matrix" values="0 0 0 0 0 0 0 0 0 0 0 0 0 0 0 0 0 0 0.25 0"/>
<feBlend mode="normal" in2="shape" result="effect2_innerShadow_821_2931"/>
</filter>
<linearGradient id="paint0_linear_821_2931" x1="1.17873" y1="9.49995" x2="111.051" y2="4.33852" gradientUnits="userSpaceOnUse">
<stop offset="0.30707" stop-color="#CBE7ED"/>
<stop offset="0.909049" stop-color="#8AC3CF"/>
<stop offset="1" stop-color="#4CA0B3"/>
</linearGradient>
<linearGradient id="paint1_linear_821_2931" x1="105.195" y1="9.49995" x2="214.116" y2="4.4277" gradientUnits="userSpaceOnUse">
<stop stop-color="#CBE7ED"/>
<stop offset="0.1" stop-color="#8AC3CF"/>
<stop offset="0.94" stop-color="#4CA0B3"/>
<stop offset="0.99" stop-color="#0A7189"/>
</linearGradient>
</defs>
</svg>
