<svg xmlns="http://www.w3.org/2000/svg" width="54" height="55" fill="none" viewBox="0 0 54 55">
  <path fill="#E72329" d="M52.16 33.14h-1.39c0 3.9-.35 7.08-1 9.5-.65 2.43-1.63 4.26-2.86 5.58-1.25 1.33-2.8 2.26-4.78 2.79-2.03.56-4.54.85-7.5.85H16.91c-2.89 0-5.17-.52-6.9-1.47-1.81-1.01-3.23-2.27-4.3-3.85-1.09-1.6-1.85-3.41-2.28-5.48-.45-2.12-.66-4.3-.66-6.53V17.01c0-2.23.38-4.19 1.12-5.92.76-1.78 1.77-3.25 3.04-4.48 1.26-1.23 2.73-2.17 4.46-2.84 1.73-.67 3.55-1 5.52-1h20.11c1.62 0 3.26.3 4.95.91 1.65.61 3.12 1.48 4.42 2.66 1.3 1.17 2.35 2.58 3.17 4.26.79 1.61 1.2 3.49 1.2 5.71v16.82h2.78V16.31c0-2.56-.48-4.89-1.48-6.94-.97-1.97-2.24-3.68-3.8-5.09a16.004 16.004 0 0 0-5.34-3.21C40.97.36 38.99 0 37.02 0H16.91c-2.28 0-4.47.39-6.52 1.19-2.05.79-3.87 1.94-5.4 3.44C3.46 6.12 2.24 7.92 1.35 10c-.92 2.12-1.36 4.47-1.36 7.02v17.52c0 2.41.24 4.79.73 7.1.49 2.39 1.39 4.55 2.7 6.47 1.33 1.95 3.1 3.53 5.25 4.72 2.27 1.24 5.02 1.81 8.24 1.81h17.72c3.14 0 5.88-.3 8.23-.94 2.4-.65 4.47-1.86 6.07-3.58 1.62-1.72 2.77-4 3.51-6.75.74-2.76 1.1-6.15 1.1-10.21h-1.39l.01-.02Z"/>
  <path fill="#CE232C" d="M40.06 18.51h1.39c0-1.09-.37-2.15-1.05-3-.62-.8-1.43-1.44-2.36-1.95-.93-.51-1.97-.87-3.09-1.09h.01c-1.08-.22-2.18-.32-3.26-.32H20.85c-.96 0-1.9.09-2.85.27-1 .19-1.93.52-2.77 1.01-.86.49-1.61 1.17-2.18 2-.65.92-.95 2.03-.95 3.18v15.93c0 1.52.33 2.9 1.08 4.05.67 1.02 1.55 1.88 2.61 2.48 1 .58 2.1.97 3.26 1.16 1.06.18 2.06.27 3.01.27h9.16c2.6 0 4.97-.63 6.97-1.91 1.01-.65 1.84-1.43 2.41-2.36.57-.93.87-2 .87-3.09V18.52h-2.78v16.62c0 .63-.15 1.13-.46 1.64-.3.5-.8 1-1.55 1.48-1.51.96-3.29 1.47-5.47 1.47h-9.16c-.77 0-1.62-.08-2.55-.24h-.01c-.83-.14-1.59-.41-2.31-.83-.68-.39-1.22-.91-1.68-1.6-.38-.59-.61-1.39-.61-2.53V18.6c0-.71.16-1.18.44-1.59.36-.5.78-.88 1.3-1.19a5.76 5.76 0 0 1 1.91-.68c.78-.15 1.56-.22 2.33-.22h10.85c.9 0 1.81.09 2.71.27.87.17 1.63.44 2.29.8.66.36 1.15.77 1.52 1.23.32.42.44.78.45 1.28h1.38l-.01.01Z"/>
  <path fill="#E72329" d="M52.16 33.14c0 3.98-.35 7.27-1.05 9.85-.7 2.59-1.76 4.65-3.19 6.17-1.43 1.53-3.24 2.59-5.42 3.19-2.19.6-4.81.9-7.86.9H16.92c-3.06 0-5.58-.55-7.57-1.64-1.99-1.1-3.58-2.52-4.78-4.29-1.19-1.76-2.03-3.75-2.48-5.98-.47-2.21-.7-4.49-.7-6.81V17.01c0-2.39.41-4.54 1.24-6.47.83-1.93 1.94-3.57 3.34-4.93 1.4-1.36 3.04-2.4 4.93-3.14 1.89-.73 3.9-1.09 6.02-1.09h20.11c1.79 0 3.6.33 5.43 1 1.82.66 3.45 1.64 4.88 2.93 1.43 1.3 2.59 2.86 3.48 4.68.9 1.82 1.35 3.93 1.35 6.32v16.82l-.01.01ZM39.91 18.51c0-.8-.25-1.51-.75-2.14-.5-.63-1.15-1.16-1.94-1.59-.8-.43-1.7-.75-2.69-.94-.99-.2-1.99-.3-2.98-.3H20.7c-.86 0-1.73.09-2.59.25-.86.17-1.64.44-2.33.85-.7.4-1.28.93-1.75 1.59-.46.66-.69 1.46-.69 2.39v15.93c0 1.33.28 2.42.85 3.29a6.23 6.23 0 0 0 2.14 2.04c.86.5 1.79.83 2.79.99 1 .17 1.92.25 2.78.25h9.16c2.39 0 4.46-.56 6.22-1.69 1.76-1.13 2.64-2.55 2.64-4.28V18.52l-.01-.01Z"/>
  <path fill="#E72329" d="M41.3 12.15H11.94v33.32H41.3V12.15Z"/>
  <path fill="#fff" d="M35.15 21.03c1.32-1.79 1.33-4.04 0-5.02-1.31-.98-3.48-.32-4.8 1.47L18.39 33.61c-1.32 1.78-1.32 4.05 0 5.02 1.32.98 3.48.32 4.8-1.47l11.96-16.13Z"/>
  <path fill="#fff" d="m35.15 21.03 2.29 1.7c1-1.36 1.55-2.92 1.56-4.52 0-.8-.14-1.61-.49-2.4-.34-.78-.9-1.54-1.65-2.09a5.187 5.187 0 0 0-3.13-1.01c-1.15 0-2.22.34-3.17.87-.95.53-1.8 1.28-2.49 2.21L16.11 31.92c-1 1.36-1.55 2.91-1.55 4.52 0 .79.14 1.61.48 2.4.34.78.9 1.53 1.65 2.09.95.71 2.09 1.02 3.14 1.01 1.15 0 2.22-.34 3.17-.87.95-.53 1.79-1.28 2.48-2.2l11.96-16.13-2.29-1.7-2.29-1.7L20.9 35.47c-.22.3-.47.51-.69.63-.21.12-.38.14-.38.14v.27l.08-.25-.08-.02v.27l.08-.25-.18.58.36-.49-.18-.09-.18.58.36-.49-.3.41.48-.21-.17-.2-.31.41.48-.21-.1.04.11-.03-.1.03.11-.03v-.13c-.02-.23.09-.7.42-1.12l11.96-16.13c.22-.3.48-.51.69-.63.22-.12.38-.14.38-.14v-.28l-.08.26.08.02v-.28l-.08.26.18-.57-.35.48.18.09.18-.57-.35.48.31-.42-.49.21.17.21.31-.42-.49.21.11-.05-.11.04v.13c.02.22-.1.69-.42 1.12l2.29 1.7h-.03Z"/>
</svg>
