<svg width="1505" height="958" viewBox="0 0 1505 958" fill="none" xmlns="http://www.w3.org/2000/svg">
<g clip-path="url(#clip0_513_2)">
<rect width="1505" height="958" fill="#083742"/>
<path d="M-61 311.372C16.0205 358.8 199.517 406.777 317.341 219.267C435.165 31.7565 615.296 47.6159 690.634 78.9845" stroke="url(#paint0_linear_513_2)" stroke-opacity="0.2" stroke-width="6"/>
<path d="M1634 75C1544.77 89.8434 1374.91 174.224 1409.27 392.998C1443.63 611.772 1297.41 718.155 1220 744" stroke="url(#paint1_linear_513_2)" stroke-opacity="0.2" stroke-width="6"/>
<path d="M1154.19 -40C1150.91 100.127 1188.21 393.314 1363.64 445.053C1539.08 496.792 1542.78 706.576 1522.7 805" stroke="url(#paint2_linear_513_2)" stroke-opacity="0.2" stroke-width="6"/>
</g>
<defs>
<linearGradient id="paint0_linear_513_2" x1="-7.25683" y1="325.044" x2="557.213" y2="66.1808" gradientUnits="userSpaceOnUse">
<stop stop-color="#043C49"/>
<stop offset="0.276042" stop-color="#4CA0B3"/>
<stop offset="0.485" stop-color="#CBE7ED"/>
<stop offset="0.739583" stop-color="#4CA0B3"/>
<stop offset="1" stop-color="#043C49"/>
</linearGradient>
<linearGradient id="paint1_linear_513_2" x1="1584.5" y1="100" x2="1329" y2="666" gradientUnits="userSpaceOnUse">
<stop stop-color="#043C49"/>
<stop offset="0.275" stop-color="#4CA0B3"/>
<stop offset="0.685" stop-color="#CBE7ED"/>
<stop offset="0.875" stop-color="#4CA0B3"/>
<stop offset="1" stop-color="#043C49"/>
</linearGradient>
<linearGradient id="paint2_linear_513_2" x1="1167.5" y1="-0.500001" x2="1514" y2="774" gradientUnits="userSpaceOnUse">
<stop stop-color="#043C49"/>
<stop offset="0.245" stop-color="#4CA0B3"/>
<stop offset="0.595" stop-color="#CBE7ED"/>
<stop offset="0.8" stop-color="#4CA0B3"/>
<stop offset="1" stop-color="#043C49"/>
</linearGradient>
<clipPath id="clip0_513_2">
<rect width="1505" height="958" fill="white"/>
</clipPath>
</defs>
</svg>
